# xmcd
#
# Track frame offsets:
#	150
#	12433
#	26887
#	50131
#	63680
#	75597
#	87509
#	100259
#	117232
#	129894
#	140877
#	156644
#	168003
#	180571
#	193288
#	206252
#
# Disc length: 2968 seconds
#
# Revision: 1
# Processed by: cddbd v1.5.2PL0 Copyright (c) Steve Scherf et al.
# Submitted via: audiograbber 1.83.01
#
DISCID=e70b9610
DTITLE=Diverse - Howdy! (2/2)
DYEAR=2015
DGENRE=Country
TTITLE0=Johnny Cash - Ring Of Fire
TTITLE1=Glen Campell - Rhinestone Cowboy
TTITLE2=Trisha Yearwood - Georgia Rain
TTITLE3=Kenny Rogers and The First Edition - Ruby, Don't Take Your Love To Town
TTITLE4=Connie Francis - Everybody's Somebody's Fool
TTITLE5=Conway Twitty and Loretta Lynn - After The Fire Is Gone
TTITLE6=Patsy Cline - I Fall To Pieces
TTITLE7=Jamey Johnson - Cover Your Eyes
TTITLE8=Bill Anderson - Still
TTITLE9=Brenda Lee - Fool #1
TTITLE10=Trace Adkins - Just Fishin'
TTITLE11=Kitty Wells - It Wasn't God Who Made Honky Tonk Angels
TTITLE12=Hank Williams - I'm So Lonesome I Could Cry
TTITLE13=Merle Haggard and The Strangers - Sing Me Back Home
TTITLE14=Easton Corbin - A Little More Country Than That
TTITLE15=Lee Ann Womack - Either Way
EXTD=
EXTT0=
EXTT1=
EXTT2=
EXTT3=
EXTT4=
EXTT5=
EXTT6=
EXTT7=
EXTT8=
EXTT9=
EXTT10=
EXTT11=
EXTT12=
EXTT13=
EXTT14=
EXTT15=
PLAYORDER=
